<?xml version="1.0" standalone="no"?><!DOCTYPE svg PUBLIC "-//W3C//DTD SVG 1.1//EN" "http://www.w3.org/Graphics/SVG/1.1/DTD/svg11.dtd"><svg t="1694851790075" class="icon" viewBox="0 0 1024 1024" version="1.1" xmlns="http://www.w3.org/2000/svg" p-id="1508" xmlns:xlink="http://www.w3.org/1999/xlink" width="200" height="200"><path d="M921.134545 474.763636L553.658182 111.941818a58.88 58.88 0 0 0-11.170909-9.309091 54.923636 54.923636 0 0 0-61.905455 0 57.250909 57.250909 0 0 0-11.170909 10.24L102.865455 474.763636a32.581818 32.581818 0 0 0-9.774546 23.272728 32.116364 32.116364 0 0 0 9.774546 23.272727c11.403636 11.636364 28.392727 8.145455 44.450909-7.68l24.669091-23.272727 40.261818-38.632728v373.992728a84.712727 84.712727 0 0 0 84.945454 84.014545h143.592728V670.72a33.745455 33.745455 0 0 1 33.978181-33.512727h74.24a33.512727 33.512727 0 0 1 33.978182 33.512727v239.010909h143.592727a84.712727 84.712727 0 0 0 84.945455-84.014545v-372.363637l65.163636 64a56.785455 56.785455 0 0 0 29.090909 11.170909 20.48 20.48 0 0 0 15.36-6.516363 32.116364 32.116364 0 0 0 9.774546-23.272728 32.581818 32.581818 0 0 0-9.774546-23.272727z m0 0" fill="#2c2c2c" p-id="1509"></path></svg>